<?xml version="1.0" encoding="UTF-8" standalone="no"?>
<!-- Generator: Adobe Illustrator 19.0.0, SVG Export Plug-In . SVG Version: 6.00 Build 0)  -->

<svg
   xmlns:dc="http://purl.org/dc/elements/1.1/"
   xmlns:cc="http://creativecommons.org/ns#"
   xmlns:rdf="http://www.w3.org/1999/02/22-rdf-syntax-ns#"
   xmlns:svg="http://www.w3.org/2000/svg"
   xmlns="http://www.w3.org/2000/svg"
   xmlns:sodipodi="http://sodipodi.sourceforge.net/DTD/sodipodi-0.dtd"
   xmlns:inkscape="http://www.inkscape.org/namespaces/inkscape"
   version="1.1"
   id="Capa_1"
   x="0px"
   y="0px"
   viewBox="0 0 128 128"
   xml:space="preserve"
   sodipodi:docname="avatar.svg"
   width="128"
   height="128"
   inkscape:version="0.92.5 (2060ec1f9f, 2020-04-08)"><metadata
   id="metadata85"><rdf:RDF><cc:Work
       rdf:about=""><dc:format>image/svg+xml</dc:format><dc:type
         rdf:resource="http://purl.org/dc/dcmitype/StillImage" /><dc:title></dc:title></cc:Work></rdf:RDF></metadata><defs
   id="defs83" /><sodipodi:namedview
   pagecolor="#ffffff"
   bordercolor="#666666"
   borderopacity="1"
   objecttolerance="10"
   gridtolerance="10"
   guidetolerance="10"
   inkscape:pageopacity="0"
   inkscape:pageshadow="2"
   inkscape:window-width="1366"
   inkscape:window-height="710"
   id="namedview81"
   showgrid="false"
   inkscape:zoom="3.6953125"
   inkscape:cx="64"
   inkscape:cy="64"
   inkscape:window-x="0"
   inkscape:window-y="27"
   inkscape:window-maximized="1"
   inkscape:current-layer="Capa_1" />
























<path
   style="fill:#f8b64c;stroke-width:0.24999613"
   d="m 82.8745,83.921118 c 0.136,5.119841 1.20275,10.212933 3.176,15.306275 -14.69875,3.199897 -29.38925,3.199897 -44.08275,0 4.24,-11.039657 4.24,-22.106064 0,-33.145721 14.69325,-3.1999 29.38675,-3.1999 44.08275,0 -0.296,0.746727 -0.56275,1.466705 -0.776,2.213182 H 85.248 c -1.73325,5.173089 -2.53075,10.372927 -2.376,15.572766 v 0.05325 h 0.0025 z"
   id="path2"
   inkscape:connector-curvature="0" /><path
   style="fill:#f2f2f2;stroke-width:0.24999613;fill-opacity:1"
   d="M 128,128 H 0 C 0,114.21368 7.30675,101.68082 18.85325,94.80103 20.6665,93.707814 22.5625,92.747844 24.5625,91.974368 l 20.42675,-8.026501 0.14125,0.024 18.86925,15.255526 18.90675,-15.252776 v -0.08 l 0.136,0.05325 20.4,8.026501 c 2,0.799975 3.91725,1.733196 5.728,2.826662 4.88,2.90666 8.98925,6.82904 12.10925,11.3889 C 125.57325,112.48048 128,120.02675 128,128"
   id="path4"
   inkscape:connector-curvature="0" /><g
   id="g10"
   transform="matrix(0.25,0,0,0.24999224,-0.002,-2.6535918e-5)">
	<path
   style="fill:#f2f2f2"
   d="m 382.674,512.016 h 129.333 c 0,-31.893 -9.707,-62.08 -26.88,-87.253 -12.48,-18.24 -28.917,-33.92 -48.437,-45.557 -7.253,-4.373 -14.912,-8.107 -22.912,-11.307 l -31.104,-12.235 z"
   id="path6"
   inkscape:connector-curvature="0" />
	<path
   style="fill:#f2f2f2"
   d="M 129.362,512.016 H 0.008 c 0,-31.893 9.707,-62.08 26.88,-87.253 12.48,-18.24 28.917,-33.92 48.437,-45.557 7.253,-4.373 14.933,-8.107 22.933,-11.307 l 31.104,-12.235 z"
   id="path8"
   inkscape:connector-curvature="0" />
</g><g
   style="opacity:0.1"
   id="g16"
   transform="matrix(0.25,0,0,0.24999224,-0.002,-2.6535918e-5)">
	<g
   id="g14">
		<path
   style="fill:#40596b"
   d="m 341.01,273.189 c -6.933,20.693 -10.123,41.493 -9.504,62.293 l 0.171,0.384 -53.504,43.328 -62.187,-46.059 33.291,-41.067 z"
   id="path12"
   inkscape:connector-curvature="0" />
	</g>
</g><g
   id="g22"
   transform="matrix(0.25,0,0,0.24999224,-0.002,-2.6535918e-5)">
	<path
   style="fill:#f8b64c"
   d="m 175.784,192.922 c 1.664,19.147 -7.627,35.605 -20.747,36.747 -13.141,1.152 -25.141,-13.44 -26.837,-32.587 -1.664,-19.147 7.627,-35.595 20.768,-36.747 13.12,-1.151 25.12,13.44 26.816,32.587"
   id="path18"
   inkscape:connector-curvature="0" />
	<path
   style="fill:#f8b64c"
   d="m 383.837,197.093 c -1.664,19.147 -13.685,33.739 -26.816,32.587 -13.141,-1.141 -22.443,-17.6 -20.747,-36.747 1.664,-19.147 13.664,-33.739 26.816,-32.587 13.131,1.142 22.422,17.6 20.747,36.747"
   id="path20"
   inkscape:connector-curvature="0" />
</g><path
   style="fill:#ffd15c;stroke-width:0.24999613"
   d="m 91.624,35.706615 v 9.066469 c -0.02675,1.91994 -0.13075,3.83988 -0.37075,5.733072 -0.4,3.146652 -1.06675,6.239806 -2,9.226463 -2.272,7.226526 -6.08275,13.892819 -11.22925,19.519394 l -2.64,2.879911 c -2.4,2.639918 -5.81325,4.133121 -9.38675,4.133121 h -4 c -3.54675,0 -6.95725,-1.519952 -9.36,-4.133121 L 50.024,79.252013 C 46.37325,75.278886 43.384,70.745527 41.17075,65.919177 38.93075,61.066078 37.4375,55.866239 36.79475,50.506406 36.55475,48.613214 36.424,46.693274 36.424,44.773334 36.39725,44.56009 36.39725,44.373346 36.39725,44.160103 V 35.86711 c 0,-2.613169 0.37075,-5.173089 1.06125,-7.573015 3.28,-11.546391 13.92275,-20.0261282 26.56275,-20.0261282 12.61325,0 23.256,8.4797372 26.53075,20.0261282 0.704,2.346177 1.072,4.85285 1.072,7.41252"
   id="path24"
   inkscape:connector-curvature="0" /><g
   id="g30"
   transform="matrix(0.25,0,0,0.24999224,-0.002,-2.6535918e-5)">
	<path
   style="fill:#acb3ba"
   d="m 354.525,324.698 c -0.107,0.117 -0.224,0.117 -0.224,0.117 v -0.235 c 0.128,0.001 0.224,0.118 0.224,0.118"
   id="path26"
   inkscape:connector-curvature="0" />
	<path
   style="fill:#acb3ba"
   d="m 355.005,324.581 v 0.235 c 0,0 -0.128,0 -0.224,-0.117 0,-0.001 0.107,-0.118 0.224,-0.118"
   id="path28"
   inkscape:connector-curvature="0" />
</g><g
   id="g36"
   transform="matrix(0.25,0,0,0.24999224,-0.002,-2.6535918e-5)">
	<path
   style="fill:#40596b"
   d="m 436.69,379.216 c -5.856,10.027 -39.563,70.933 -39.563,132.8 H 299.42 c 9.269,-37.76 31.787,-133.12 32.747,-176.213 l 81.6,32.107 c 8.011,3.199 15.681,6.932 22.923,11.306"
   id="path32"
   inkscape:connector-curvature="0" />
	<path
   style="fill:#40596b"
   d="m 212.69,512.016 h -97.707 c -0.107,-61.867 -33.685,-122.773 -39.563,-132.8 7.253,-4.373 14.837,-8.213 22.837,-11.307 l 81.707,-32.107 c 0.961,43.094 23.457,138.453 32.726,176.214"
   id="path34"
   inkscape:connector-curvature="0" />
</g><g
   id="g42"
   transform="matrix(0.25,0,0,0.24999224,-0.002,-2.6535918e-5)">
	<path
   style="fill:#f2f2f2"
   d="m 256.008,396.922 -75.477,-61.024 -0.565,-0.096 c 0.565,25.184 8.48,68.203 16.811,107.168 z"
   id="path38"
   inkscape:connector-curvature="0" />
	<path
   style="fill:#f2f2f2"
   d="m 256.136,396.922 76.043,-61.12 c -0.565,25.184 -8.48,68.203 -16.811,107.168 z"
   id="path40"
   inkscape:connector-curvature="0" />
</g><g
   id="g48"
   transform="matrix(0.25,0,0,0.24999224,-0.002,-2.6535918e-5)">
	
	<path
   style="fill:#40596b"
   d="m 366.525,195.002 c 3.808,-27.445 10.603,-25.845 10.603,-25.845 43.477,-83.872 -20.651,-96.149 -20.651,-96.149 6.859,-44.981 -18.293,-55.659 -18.293,-55.659 -77.771,-42.699 -151.755,6.859 -151.755,6.859 -33.547,32.021 -48.021,0 -48.021,0 -27.456,61.76 0,76.245 0,76.245 -9.163,28.213 -1.12,66.795 -1.12,66.795 l 10.101,27.755 4.587,-11.861 10.059,-45.749 c 0,0 14.496,-38.464 27.456,-43.04 12.629,-4.448 20.917,14.421 132.704,4.043 5.163,-0.491 10.037,2.603 11.691,7.531 2.976,8.832 14.731,20.971 20.875,25.803 2.443,1.909 4.267,4.469 4.352,7.563 l 0.917,44.789 z"
   id="path46"
   inkscape:connector-curvature="0" />
</g><g
   id="g50"
   transform="matrix(0.25,0,0,0.24999224,-0.002,-2.6535918e-5)">
</g><g
   id="g52"
   transform="matrix(0.25,0,0,0.24999224,-0.002,-2.6535918e-5)">
</g><g
   id="g54"
   transform="matrix(0.25,0,0,0.24999224,-0.002,-2.6535918e-5)">
</g><g
   id="g56"
   transform="matrix(0.25,0,0,0.24999224,-0.002,-2.6535918e-5)">
</g><g
   id="g58"
   transform="matrix(0.25,0,0,0.24999224,-0.002,-2.6535918e-5)">
</g><g
   id="g60"
   transform="matrix(0.25,0,0,0.24999224,-0.002,-2.6535918e-5)">
</g><g
   id="g62"
   transform="matrix(0.25,0,0,0.24999224,-0.002,-2.6535918e-5)">
</g><g
   id="g64"
   transform="matrix(0.25,0,0,0.24999224,-0.002,-2.6535918e-5)">
</g><g
   id="g66"
   transform="matrix(0.25,0,0,0.24999224,-0.002,-2.6535918e-5)">
</g><g
   id="g68"
   transform="matrix(0.25,0,0,0.24999224,-0.002,-2.6535918e-5)">
</g><g
   id="g70"
   transform="matrix(0.25,0,0,0.24999224,-0.002,-2.6535918e-5)">
</g><g
   id="g72"
   transform="matrix(0.25,0,0,0.24999224,-0.002,-2.6535918e-5)">
</g><g
   id="g74"
   transform="matrix(0.25,0,0,0.24999224,-0.002,-2.6535918e-5)">
</g><g
   id="g76"
   transform="matrix(0.25,0,0,0.24999224,-0.002,-2.6535918e-5)">
</g><g
   id="g78"
   transform="matrix(0.25,0,0,0.24999224,-0.002,-2.6535918e-5)">
</g>
</svg>