<?xml version="1.0" encoding="UTF-8" standalone="no"?>
<!-- Generator: Adobe Illustrator 19.0.0, SVG Export Plug-In . SVG Version: 6.00 Build 0)  -->

<svg
   xmlns:dc="http://purl.org/dc/elements/1.1/"
   xmlns:cc="http://creativecommons.org/ns#"
   xmlns:rdf="http://www.w3.org/1999/02/22-rdf-syntax-ns#"
   xmlns:svg="http://www.w3.org/2000/svg"
   xmlns="http://www.w3.org/2000/svg"
   xmlns:sodipodi="http://sodipodi.sourceforge.net/DTD/sodipodi-0.dtd"
   xmlns:inkscape="http://www.inkscape.org/namespaces/inkscape"
   version="1.1"
   id="Capa_1"
   x="0px"
   y="0px"
   viewBox="0 0 128 128"
   xml:space="preserve"
   sodipodi:docname="coding.svg"
   width="128"
   height="128"
   inkscape:version="0.92.5 (2060ec1f9f, 2020-04-08)"><metadata
   id="metadata95"><rdf:RDF><cc:Work
       rdf:about=""><dc:format>image/svg+xml</dc:format><dc:type
         rdf:resource="http://purl.org/dc/dcmitype/StillImage" /><dc:title></dc:title></cc:Work></rdf:RDF></metadata><defs
   id="defs93" /><sodipodi:namedview
   pagecolor="#ffffff"
   bordercolor="#666666"
   borderopacity="1"
   objecttolerance="10"
   gridtolerance="10"
   guidetolerance="10"
   inkscape:pageopacity="0"
   inkscape:pageshadow="2"
   inkscape:window-width="1366"
   inkscape:window-height="710"
   id="namedview91"
   showgrid="false"
   inkscape:zoom="3.6953125"
   inkscape:cx="64"
   inkscape:cy="64"
   inkscape:window-x="0"
   inkscape:window-y="27"
   inkscape:window-maximized="1"
   inkscape:current-layer="Capa_1" />




































<g
   id="g946"
   transform="matrix(0.25,0,0,0.25,0,2.207)"><path
     id="path2"
     d="M 370.759,503.172 H 141.241 c -9.754,0 -17.655,-7.901 -17.655,-17.655 v 0 c 0,-9.754 7.901,-17.655 17.655,-17.655 h 229.517 c 9.754,0 17.655,7.901 17.655,17.655 v 0 c 10e-4,9.755 -7.9,17.655 -17.654,17.655 z"
     style="fill:#e7eced"
     inkscape:connector-curvature="0" /><path
     id="path4"
     d="m 300.138,397.241 v -17.655 h -88.276 v 17.655 c 0,39.036 -13.93,70.621 -52.966,70.621 h 194.207 c -39.035,0 -52.965,-31.585 -52.965,-70.621 z"
     style="fill:#afb6bb"
     inkscape:connector-curvature="0" /><path
     id="path6"
     d="M 485.508,397.241 H 26.492 C 11.864,397.241 0,385.377 0,370.75 v -52.957 h 512 v 52.957 c 0,14.627 -11.864,26.491 -26.492,26.491 z"
     style="fill:#e7eced"
     inkscape:connector-curvature="0" /><path
     id="path8"
     d="m 282.483,370.759 h -52.966 c -4.873,0 -8.828,-3.955 -8.828,-8.828 0,-4.873 3.955,-8.828 8.828,-8.828 h 52.966 c 4.873,0 8.828,3.955 8.828,8.828 0,4.873 -3.955,8.828 -8.828,8.828 z"
     style="fill:#afb6bb"
     inkscape:connector-curvature="0" /><path
     id="path10"
     d="M 441.379,8.828 H 70.621 26.492 C 11.864,8.828 0,20.692 0,35.319 V 326.621 H 70.621 203.035 308.966 441.38 512 V 35.319 C 512,20.692 500.136,8.827 485.508,8.827 h -44.129 z"
     style="fill:#495d72"
     inkscape:connector-curvature="0" /><rect
     id="rect12"
     height="282.483"
     width="238.345"
     style="fill:#28384c"
     y="44.138"
     x="238.345" /><rect
     id="rect14"
     height="282.483"
     width="220.69"
     style="fill:#ebba16"
     y="44.138"
     x="35.310001" /><g
     id="g30">
	<path
   id="path16"
   d="m 132.405,300.138 c -1.324,0 -2.675,-0.3 -3.946,-0.927 -4.361,-2.18 -6.126,-7.486 -3.946,-11.847 l 26.483,-52.965 c 2.18,-4.361 7.495,-6.126 11.847,-3.946 4.361,2.18 6.126,7.486 3.946,11.847 l -26.483,52.965 c -1.545,3.09 -4.661,4.873 -7.901,4.873 z"
   style="fill:#ffffff"
   inkscape:connector-curvature="0" />
	<path
   id="path18"
   d="m 70.621,273.655 c -2.26,0 -4.52,-0.865 -6.241,-2.586 -3.452,-3.452 -3.452,-9.031 0,-12.482 l 26.483,-26.483 c 3.443,-3.452 9.039,-3.452 12.482,0 3.452,3.452 3.452,9.031 0,12.482 l -26.483,26.483 c -1.722,1.721 -3.981,2.586 -6.241,2.586 z"
   style="fill:#ffffff"
   inkscape:connector-curvature="0" />
	<path
   id="path20"
   d="m 97.103,300.138 c -2.26,0 -4.52,-0.865 -6.241,-2.586 L 64.38,271.069 c -3.452,-3.452 -3.452,-9.031 0,-12.482 3.443,-3.452 9.039,-3.452 12.482,0 l 26.483,26.483 c 3.452,3.452 3.452,9.031 0,12.482 -1.722,1.721 -3.982,2.586 -6.242,2.586 z"
   style="fill:#ffffff"
   inkscape:connector-curvature="0" />
	<path
   id="path22"
   d="m 220.69,273.655 c -2.26,0 -4.52,-0.865 -6.241,-2.586 l -26.483,-26.483 c -3.452,-3.452 -3.452,-9.031 0,-12.482 3.443,-3.452 9.039,-3.452 12.482,0 l 26.483,26.483 c 3.452,3.452 3.452,9.031 0,12.482 -1.722,1.721 -3.981,2.586 -6.241,2.586 z"
   style="fill:#ffffff"
   inkscape:connector-curvature="0" />
	<path
   id="path24"
   d="m 194.207,300.138 c -2.26,0 -4.52,-0.865 -6.241,-2.586 -3.452,-3.452 -3.452,-9.031 0,-12.482 l 26.483,-26.483 c 3.443,-3.452 9.039,-3.452 12.482,0 3.452,3.452 3.452,9.031 0,12.482 l -26.483,26.483 c -1.721,1.721 -3.981,2.586 -6.241,2.586 z"
   style="fill:#ffffff"
   inkscape:connector-curvature="0" />
	<path
   id="path26"
   d="m 150.069,150.069 c -4.873,0 -8.828,-3.955 -8.828,-8.828 V 79.448 c 0,-4.873 3.955,-8.828 8.828,-8.828 4.873,0 8.828,3.955 8.828,8.828 v 61.793 c 0,4.873 -3.955,8.828 -8.828,8.828 z"
   style="fill:#ffffff"
   inkscape:connector-curvature="0" />
	<path
   id="path28"
   d="m 150.069,203.034 c -4.873,0 -8.828,-3.955 -8.828,-8.828 v -17.655 c 0,-4.873 3.955,-8.828 8.828,-8.828 4.873,0 8.828,3.955 8.828,8.828 v 17.655 c 0,4.874 -3.955,8.828 -8.828,8.828 z"
   style="fill:#ffffff"
   inkscape:connector-curvature="0" />
</g><path
     id="path32"
     d="M 379.586,88.276 H 291.31 c -4.873,0 -8.828,-3.955 -8.828,-8.828 0,-4.873 3.955,-8.828 8.828,-8.828 h 88.276 c 4.873,0 8.828,3.955 8.828,8.828 0,4.873 -3.955,8.828 -8.828,8.828 z"
     style="fill:#dd352e"
     inkscape:connector-curvature="0" /><path
     id="path34"
     d="m 441.379,88.276 h -26.483 c -4.873,0 -8.828,-3.955 -8.828,-8.828 0,-4.873 3.955,-8.828 8.828,-8.828 h 26.483 c 4.873,0 8.828,3.955 8.828,8.828 0,4.873 -3.955,8.828 -8.828,8.828 z"
     style="fill:#366db6"
     inkscape:connector-curvature="0" /><path
     id="path36"
     d="m 441.379,123.586 h -88.276 c -4.873,0 -8.828,-3.955 -8.828,-8.828 0,-4.873 3.955,-8.828 8.828,-8.828 h 88.276 c 4.873,0 8.828,3.955 8.828,8.828 0,4.873 -3.955,8.828 -8.828,8.828 z"
     style="fill:#75348b"
     inkscape:connector-curvature="0" /><path
     id="path38"
     d="M 317.793,123.586 H 291.31 c -4.873,0 -8.828,-3.955 -8.828,-8.828 0,-4.873 3.955,-8.828 8.828,-8.828 h 26.483 c 4.873,0 8.828,3.955 8.828,8.828 0,4.873 -3.955,8.828 -8.828,8.828 z"
     style="fill:#57abc1"
     inkscape:connector-curvature="0" /><path
     id="path40"
     d="M 379.586,158.897 H 291.31 c -4.873,0 -8.828,-3.955 -8.828,-8.828 0,-4.873 3.955,-8.828 8.828,-8.828 h 88.276 c 4.873,0 8.828,3.955 8.828,8.828 0,4.873 -3.955,8.828 -8.828,8.828 z"
     style="fill:#25ae88"
     inkscape:connector-curvature="0" /><path
     id="path42"
     d="m 441.379,158.897 h -26.483 c -4.873,0 -8.828,-3.955 -8.828,-8.828 0,-4.873 3.955,-8.828 8.828,-8.828 h 26.483 c 4.873,0 8.828,3.955 8.828,8.828 0,4.873 -3.955,8.828 -8.828,8.828 z"
     style="fill:#f76363"
     inkscape:connector-curvature="0" /><path
     id="path44"
     d="m 441.379,194.207 h -88.276 c -4.873,0 -8.828,-3.955 -8.828,-8.828 0,-4.873 3.955,-8.828 8.828,-8.828 h 88.276 c 4.873,0 8.828,3.955 8.828,8.828 0,4.873 -3.955,8.828 -8.828,8.828 z"
     style="fill:#bf5a45"
     inkscape:connector-curvature="0" /><path
     id="path46"
     d="M 317.793,194.207 H 291.31 c -4.873,0 -8.828,-3.955 -8.828,-8.828 0,-4.873 3.955,-8.828 8.828,-8.828 h 26.483 c 4.873,0 8.828,3.955 8.828,8.828 0,4.873 -3.955,8.828 -8.828,8.828 z"
     style="fill:#f2ecbf"
     inkscape:connector-curvature="0" /><path
     id="path48"
     d="m 441.379,300.138 h -88.276 c -4.873,0 -8.828,-3.955 -8.828,-8.828 0,-4.873 3.955,-8.828 8.828,-8.828 h 88.276 c 4.873,0 8.828,3.955 8.828,8.828 0,4.873 -3.955,8.828 -8.828,8.828 z"
     style="fill:#25ae88"
     inkscape:connector-curvature="0" /><path
     id="path50"
     d="M 317.793,300.138 H 291.31 c -4.873,0 -8.828,-3.955 -8.828,-8.828 0,-4.873 3.955,-8.828 8.828,-8.828 h 26.483 c 4.873,0 8.828,3.955 8.828,8.828 0,4.873 -3.955,8.828 -8.828,8.828 z"
     style="fill:#dd352e"
     inkscape:connector-curvature="0" /><path
     id="path52"
     d="M 379.586,229.517 H 291.31 c -4.873,0 -8.828,-3.955 -8.828,-8.828 0,-4.873 3.955,-8.828 8.828,-8.828 h 88.276 c 4.873,0 8.828,3.955 8.828,8.828 0,4.873 -3.955,8.828 -8.828,8.828 z"
     style="fill:#75348b"
     inkscape:connector-curvature="0" /><path
     id="path54"
     d="m 441.379,229.517 h -26.483 c -4.873,0 -8.828,-3.955 -8.828,-8.828 0,-4.873 3.955,-8.828 8.828,-8.828 h 26.483 c 4.873,0 8.828,3.955 8.828,8.828 0,4.873 -3.955,8.828 -8.828,8.828 z"
     style="fill:#ebba16"
     inkscape:connector-curvature="0" /><path
     id="path56"
     d="m 441.379,264.828 h -88.276 c -4.873,0 -8.828,-3.955 -8.828,-8.828 0,-4.873 3.955,-8.828 8.828,-8.828 h 88.276 c 4.873,0 8.828,3.955 8.828,8.828 0,4.873 -3.955,8.828 -8.828,8.828 z"
     style="fill:#ed8a19"
     inkscape:connector-curvature="0" /><path
     id="path58"
     d="M 317.793,264.828 H 291.31 c -4.873,0 -8.828,-3.955 -8.828,-8.828 0,-4.873 3.955,-8.828 8.828,-8.828 h 26.483 c 4.873,0 8.828,3.955 8.828,8.828 0,4.873 -3.955,8.828 -8.828,8.828 z"
     style="fill:#c5411e"
     inkscape:connector-curvature="0" /><g
     id="g60">
</g><g
     id="g62">
</g><g
     id="g64">
</g><g
     id="g66">
</g><g
     id="g68">
</g><g
     id="g70">
</g><g
     id="g72">
</g><g
     id="g74">
</g><g
     id="g76">
</g><g
     id="g78">
</g><g
     id="g80">
</g><g
     id="g82">
</g><g
     id="g84">
</g><g
     id="g86">
</g><g
     id="g88">
</g></g>
</svg>